# xmcd
#
# Track frame offsets: 
#        150
#        29107
#        47292
#        62817
#        73590
#        101882
#        116742
#        129902
#        150970
#        160890
#
# Disc length: 2436 seconds
#
# Revision: 13
# Processed by: cddbd v1.5.2PL0 Copyright (c) Steve Scherf et al.
# Submitted via: ExactAudioCopy v1.0b6
#
DISCID=8209820a
DTITLE=The Rolling Stones - Beggars Banquet [1986 ABKCO Remastered CD]
DYEAR=1968
DGENRE=Rock
TTITLE0=Sympathy For The Devil
TTITLE1=No Expectations
TTITLE2=Dear Doctor
TTITLE3=Parachute Woman
TTITLE4=Jig-Saw Puzzle
TTITLE5=Street Fighting Man
TTITLE6=Prodigal Son
TTITLE7=Stray Cat Blues
TTITLE8=Factory Girl
TTITLE9=Salt Of The Earth
EXTD=
EXTT0=
EXTT1=
EXTT2=
EXTT3=
EXTT4=
EXTT5=
EXTT6=
EXTT7=
EXTT8=
EXTT9=
PLAYORDER=
